<?xml version="1.0" encoding="UTF-8"?>
<svg version="1.1" xmlns="http://www.w3.org/2000/svg" width="24" height="24">
<path d="M0 0 C4.19077074 1.04769269 5.33791849 1.76747245 8 5 C8 5.99 8 6.98 8 8 C6.68 8 5.36 8 4 8 C3.9175 9.093125 3.835 10.18625 3.75 11.3125 C3 15 3 15 1.3125 17.0625 C-1 18 -1 18 -4.25 17.1875 C-5.1575 16.795625 -6.065 16.40375 -7 16 C-7.93131785 12.95205066 -8.29757762 11.57949326 -6.8125 8.6875 C-5 7 -5 7 -1 7 C-1 7.99 -1 8.98 -1 10 C-1.99 10.495 -1.99 10.495 -3 11 C-3 11.66 -3 12.32 -3 13 C-2.34 13 -1.68 13 -1 13 C-0.67 8.71 -0.34 4.42 0 0 Z " fill="#0176DB" transform="translate(12,3)"/>
</svg>
